<svg version="1.1" id="Layer_1" xmlns="http://www.w3.org/2000/svg" xmlns:xlink="http://www.w3.org/1999/xlink" x="0px" y="0px"
	 width="100%" viewBox="0 0 249 239" enable-background="new 0 0 249 239" xml:space="preserve">
<path fill="#2A679F" opacity="1.000000" stroke="none" 
	d="
M250.000000,91.000000 
	C250.000000,140.608826 250.000000,190.217667 250.000000,240.000000 
	C174.645859,240.000000 99.291588,240.000000 23.556389,239.674789 
	C24.468481,237.929962 25.761499,236.510330 26.641842,235.543793 
	C25.024767,232.972641 22.775383,230.747070 22.181118,228.143692 
	C21.220943,223.937363 18.776628,223.206345 15.663835,224.596542 
	C12.035398,226.217026 10.098453,225.498871 8.776477,221.852814 
	C7.384659,218.014130 8.906468,215.823425 12.388982,214.443604 
	C14.070827,213.777237 16.625286,213.434448 17.207104,212.201019 
	C19.527828,207.281250 24.268808,208.207962 26.613138,207.250809 
	C31.055111,211.995331 34.831100,216.270020 38.951969,220.181366 
	C39.603821,220.800064 41.812233,219.778824 43.300972,219.515808 
	C42.873085,218.206619 42.771263,216.629059 41.956081,215.638641 
	C39.524685,212.684448 36.813423,209.960587 33.267288,206.125702 
	C36.697777,206.125702 38.855816,206.125702 41.325623,206.125702 
	C41.140316,204.345795 40.981831,202.823547 40.785278,200.935654 
	C45.004768,199.574051 48.975994,198.292557 53.244274,197.166718 
	C57.725735,200.805237 61.910141,204.288116 66.150841,208.122131 
	C68.642014,211.344299 70.972305,214.313217 73.541779,217.058258 
	C76.013580,219.698914 78.221451,218.894379 80.336685,216.075943 
	C82.780479,217.116058 84.868477,218.137115 87.041687,219.382736 
	C87.757599,219.713898 88.388298,219.820511 89.376450,219.927216 
	C90.819420,220.404144 91.904930,220.880966 93.081314,221.566437 
	C93.785767,221.828140 94.399338,221.881226 95.408501,221.930542 
	C97.573631,222.477005 99.343170,223.027237 101.262878,223.799835 
	C104.273621,223.015717 107.134201,222.009247 110.367279,220.970642 
	C114.284126,222.466156 117.828476,223.993805 121.710533,225.667007 
	C122.043297,223.566238 122.247826,222.275040 122.767838,220.915756 
	C124.101959,219.620575 125.120598,218.393463 126.008308,217.324066 
	C127.018303,219.592407 127.998703,221.794266 129.164047,224.250702 
	C132.224472,223.977158 135.099945,223.449051 138.020782,223.279663 
	C140.312164,227.672882 143.432373,229.611511 148.188202,228.138123 
	C149.892197,227.610214 151.740631,227.171860 153.496124,227.256012 
	C159.260117,227.532318 159.255356,227.631683 158.211975,221.582306 
	C168.994354,218.275970 178.533966,213.307343 186.992905,206.394058 
	C189.481979,204.359772 191.355545,204.161972 194.451721,205.473404 
	C214.641663,214.025146 230.523529,203.837189 237.386017,185.870071 
	C241.761185,174.415161 238.317535,163.476288 229.926254,154.592392 
	C227.269409,151.779587 226.816284,149.497086 227.649475,145.834320 
	C229.164780,139.173019 229.844391,132.321640 230.948303,125.051956 
	C215.710526,125.051956 201.778046,125.051956 187.926071,124.694702 
	C189.780945,119.309090 193.166092,117.078842 198.598984,117.833801 
	C201.356430,118.216988 204.190323,118.049919 207.040894,118.489105 
	C208.886612,119.857666 210.637527,121.509781 212.492096,121.635696 
	C213.578369,121.709450 214.829834,119.350212 216.455292,117.982559 
	C220.262283,117.757202 223.620972,117.634712 227.268280,117.639206 
	C228.441681,117.158516 229.326447,116.550827 230.291199,115.501282 
	C229.273880,108.262688 228.127319,101.473282 227.117981,94.663521 
	C226.897537,93.176292 227.167053,91.616447 227.580246,90.169777 
	C230.617783,88.166008 233.285980,86.082497 236.302521,84.085205 
	C241.100571,86.447624 245.550278,88.723808 250.000000,91.000000 
z"/>
<path fill="#2A679F" opacity="1.000000" stroke="none" 
	d="
M0.999999,171.000000 
	C1.000000,114.421043 1.000000,57.842087 1.000000,1.000000 
	C38.353817,1.000000 75.708252,1.000000 113.562759,1.358052 
	C114.987625,3.001261 115.935349,4.270670 116.831673,5.575389 
	C118.074020,7.383801 119.277740,9.218750 120.498009,11.042336 
	C118.492371,11.971185 116.457520,12.842726 114.489754,13.845858 
	C112.711586,14.752336 110.091393,15.396749 109.440269,16.865192 
	C107.442871,21.369801 104.147949,22.409462 99.835083,21.536427 
	C98.150482,21.030653 96.113693,20.256464 94.763596,20.907125 
	C84.616150,25.797569 74.441772,30.679399 64.623558,36.184151 
	C60.249828,38.636356 56.678459,42.519642 51.883133,46.459881 
	C57.323639,49.413177 61.787430,51.836281 66.040138,54.568672 
	C64.888115,56.534618 63.947178,58.191269 62.655762,59.810730 
	C57.440487,57.275379 52.575695,54.777218 47.349892,52.093674 
	C31.373451,70.901199 21.950439,92.221886 21.198053,117.382637 
	C23.444050,117.689072 25.220497,117.931435 26.953835,118.502419 
	C25.602299,120.745750 24.293875,122.660454 22.610744,124.752701 
	C22.250576,128.972519 22.265114,133.014816 22.224163,137.384949 
	C22.420361,138.550491 22.672047,139.388168 22.873390,140.637360 
	C23.107964,142.098938 23.392879,143.149002 23.624622,144.381622 
	C23.586153,144.839737 23.708572,145.053741 23.919640,145.592773 
	C24.128487,146.948624 24.262226,147.952011 24.598959,148.881882 
	C27.804531,157.733719 31.107859,166.312729 22.168791,174.338196 
	C19.159510,177.039932 19.850414,182.085297 22.799360,184.819885 
	C25.203209,187.049011 29.038176,188.526169 32.337856,188.730087 
	C34.683281,188.875015 37.458157,186.665543 39.555691,184.922440 
	C41.614864,183.211243 42.324142,183.858261 42.870369,186.121460 
	C34.714252,190.996567 26.989052,196.362061 16.196482,194.828659 
	C19.964848,188.224457 11.642877,190.190262 11.527597,185.916168 
	C12.299858,185.318314 13.291595,184.520523 14.314014,183.764221 
	C18.799582,180.446136 18.850222,177.250443 13.743071,174.794128 
	C9.799376,172.897369 5.269342,172.219696 0.999999,171.000000 
z"/>
<path fill="#2A679F" opacity="1.000000" stroke="none" 
	d="
M146.000000,1.000000 
	C180.561752,1.000000 215.123520,1.000000 250.000000,1.000000 
	C250.000000,14.352579 250.000000,27.707632 249.664337,41.617432 
	C248.525452,42.705284 247.321808,43.056377 246.983429,43.800774 
	C244.628723,48.980988 240.846924,49.180759 236.035507,47.667053 
	C234.627686,47.224148 232.695602,48.447613 230.607849,48.843029 
	C225.471558,49.173351 220.731232,49.567947 215.954620,49.593201 
	C215.004745,48.193325 214.288803,46.685654 213.144669,46.211807 
	C206.979004,43.658268 206.942337,43.746807 209.434387,37.001003 
	C207.027939,36.466633 204.722229,35.556271 202.403214,35.521080 
	C197.284485,35.443386 192.159042,35.806561 186.707916,35.894768 
	C174.867630,28.145718 162.765976,21.809248 148.825562,18.882160 
	C147.725662,18.737865 146.846802,18.797789 145.967926,18.857712 
	C146.317993,19.556812 146.668060,20.255909 146.918015,21.259146 
	C146.217819,22.686726 145.617737,23.810165 144.745285,24.875038 
	C143.936310,24.315142 143.399689,23.813810 142.828217,22.994825 
	C141.827698,22.222399 140.862045,21.767628 139.549530,21.205175 
	C136.803741,19.887087 134.404816,18.676680 131.829346,17.185417 
	C130.402069,12.200547 132.658646,9.624269 137.008209,8.827412 
	C141.673355,7.972735 144.729111,5.594137 146.000000,1.000000 
z"/>
<path fill="#28639C" opacity="1.000000" stroke="none" 
	d="
M0.999999,171.468658 
	C5.269342,172.219696 9.799376,172.897369 13.743071,174.794128 
	C18.850222,177.250443 18.799582,180.446136 14.314014,183.764221 
	C13.291595,184.520523 12.299858,185.318314 11.527597,185.916168 
	C11.642877,190.190262 19.964848,188.224457 16.196482,194.828659 
	C26.989052,196.362061 34.714252,190.996567 43.182705,186.300751 
	C46.310417,190.973892 49.085182,190.531891 53.348904,187.578461 
	C57.728004,184.545135 63.071125,182.903488 68.301987,180.778473 
	C69.680443,180.244049 70.749283,179.583954 71.867493,178.936371 
	C71.916862,178.948898 71.940254,178.849762 72.288445,178.836533 
	C72.699493,177.906128 72.762352,176.988953 72.769226,175.693237 
	C71.641289,171.211746 70.569336,167.108810 69.727440,162.675125 
	C73.796318,161.915085 76.393600,163.062378 77.243721,167.294724 
	C77.628387,169.209839 78.888206,170.949188 79.728806,173.083618 
	C79.792953,174.022858 79.879280,174.646774 80.125443,175.559937 
	C81.189751,177.888153 82.094223,179.927139 82.723755,182.173309 
	C82.640350,183.281296 82.628784,184.294662 83.055687,185.065048 
	C86.373741,191.052765 89.776283,196.993668 92.791672,202.969788 
	C91.404320,203.406738 90.377998,203.822906 89.628754,204.126724 
	C89.983582,207.443237 96.576889,207.885513 91.680161,211.837646 
	C86.017342,203.014160 80.646584,194.360046 74.874649,185.059509 
	C68.511391,187.911453 61.395470,191.038620 54.363899,194.345169 
	C53.634983,194.687927 53.407421,196.096848 52.947227,197.011063 
	C48.975994,198.292557 45.004768,199.574051 40.785278,200.935654 
	C40.981831,202.823547 41.140316,204.345795 41.325623,206.125702 
	C38.855816,206.125702 36.697777,206.125702 33.267288,206.125702 
	C36.813423,209.960587 39.524685,212.684448 41.956081,215.638641 
	C42.771263,216.629059 42.873085,218.206619 43.300972,219.515808 
	C41.812233,219.778824 39.603821,220.800064 38.951969,220.181366 
	C34.831100,216.270020 31.055111,211.995331 26.613138,207.250809 
	C24.268808,208.207962 19.527828,207.281250 17.207104,212.201019 
	C16.625286,213.434448 14.070827,213.777237 12.388982,214.443604 
	C8.906468,215.823425 7.384659,218.014130 8.776477,221.852814 
	C10.098453,225.498871 12.035398,226.217026 15.663835,224.596542 
	C18.776628,223.206345 21.220943,223.937363 22.181118,228.143692 
	C22.775383,230.747070 25.024767,232.972641 26.641842,235.543793 
	C25.761499,236.510330 24.468481,237.929962 23.087732,239.674789 
	C15.702103,240.000000 8.404205,240.000000 1.000000,240.000000 
	C1.000000,217.312546 1.000000,194.624924 0.999999,171.468658 
M33.297523,202.915482 
	C33.104576,202.949402 32.911625,202.983337 32.718674,203.017258 
	C32.908566,203.063538 33.098461,203.109802 33.297523,202.915482 
z"/>
<path fill="#28639C" opacity="1.000000" stroke="none" 
	d="
M145.531342,1.000000 
	C144.729111,5.594137 141.673355,7.972735 137.008209,8.827412 
	C132.658646,9.624269 130.402069,12.200547 131.410065,17.162552 
	C130.443039,19.974665 129.718765,22.528786 128.587311,25.091240 
	C126.210098,25.730396 124.240059,26.361216 122.178345,26.551056 
	C122.086678,23.210527 122.086678,20.310980 122.086678,16.453329 
	C100.990898,24.209873 91.628593,40.958080 82.756287,58.819775 
	C84.591217,59.582623 85.779785,60.076752 87.066902,60.766121 
	C87.775558,60.977932 88.385674,60.994511 89.378967,60.962440 
	C90.498001,61.120171 91.233856,61.326550 92.069633,61.730103 
	C92.783463,61.931774 93.397362,61.936268 94.411987,61.900318 
	C96.875824,62.240925 98.938934,62.621975 101.009422,63.388306 
	C101.342972,65.774269 101.669136,67.774956 101.590973,69.837006 
	C98.145653,69.544800 95.104645,69.191231 91.849854,68.660202 
	C91.092087,68.442307 90.548119,68.401871 89.654602,68.180893 
	C87.220573,67.623390 85.136093,67.246437 82.796364,66.663742 
	C81.643036,66.953476 80.744949,67.448936 79.616180,68.219177 
	C78.266678,71.996956 77.147881,75.499954 75.561417,79.002716 
	C73.212624,79.014008 71.331497,79.025536 69.466064,78.613472 
	C70.631653,73.611557 71.781563,69.033234 72.971596,64.295135 
	C69.545120,62.766014 66.275681,61.306969 63.006241,59.847923 
	C63.947178,58.191269 64.888115,56.534618 66.435989,54.594109 
	C69.795082,55.337009 72.547249,56.363766 75.060570,57.301414 
	C75.714622,56.723381 76.045044,56.555546 76.183151,56.288315 
	C76.866356,54.966469 77.482567,53.610226 78.151558,52.280777 
	C83.803940,41.048145 90.137764,30.300289 99.800903,21.927868 
	C104.147949,22.409462 107.442871,21.369801 109.440269,16.865192 
	C110.091393,15.396749 112.711586,14.752336 114.489754,13.845858 
	C116.457520,12.842726 118.492371,11.971185 120.498009,11.042336 
	C119.277740,9.218750 118.074020,7.383801 116.831673,5.575389 
	C115.935349,4.270670 114.987625,3.001261 114.031418,1.358052 
	C124.354225,1.000000 134.708450,1.000000 145.531342,1.000000 
z"/>
<path fill="#2A639C" opacity="1.000000" stroke="none" 
	d="
M231.003815,48.907303 
	C232.695602,48.447613 234.627686,47.224148 236.035507,47.667053 
	C240.846924,49.180759 244.628723,48.980988 246.983429,43.800774 
	C247.321808,43.056377 248.525452,42.705284 249.664337,42.086090 
	C250.000000,58.020893 250.000000,74.041786 250.000000,90.531342 
	C245.550278,88.723808 241.100571,86.447624 236.301376,83.616135 
	C235.912247,77.040680 235.872604,71.020508 235.915741,64.564941 
	C236.071289,58.485310 236.172684,52.831665 231.003815,48.907303 
z"/>
<path fill="#FFFFFF" opacity="1.000000" stroke="none" 
	d="
M206.989655,118.131615 
	C204.190323,118.049919 201.356430,118.216988 198.598984,117.833801 
	C193.166092,117.078842 189.780945,119.309090 187.775024,124.737587 
	C187.347336,125.216980 187.169266,125.325790 186.696793,125.600006 
	C185.724487,127.172226 184.594086,128.582962 184.514130,130.050903 
	C184.391434,132.303513 184.991333,134.595505 185.051544,137.130829 
	C184.541306,138.502289 184.264099,139.613708 183.746414,140.975296 
	C181.508804,143.989578 178.533295,146.491302 177.707764,149.569626 
	C175.665100,157.186462 174.606491,165.067200 172.993408,173.175385 
	C172.527725,174.177750 172.221115,174.846619 171.771118,175.524994 
	C171.338058,175.635742 171.150391,175.835480 171.103622,176.294189 
	C171.142517,176.454651 171.159592,176.784424 170.814316,176.598816 
	C168.963272,176.062408 167.457489,175.711594 165.649353,175.209564 
	C164.901581,175.027557 164.456192,174.996796 163.802734,174.772079 
	C163.045364,174.509705 162.496033,174.441284 161.638763,174.232819 
	C160.883484,174.077484 160.436127,174.062164 159.726410,173.857315 
	C158.623474,173.580078 157.782913,173.492355 156.553421,173.269638 
	C154.809250,173.004272 153.454010,172.873917 151.801620,172.552246 
	C150.334061,172.254395 149.163651,172.147827 147.706360,171.871063 
	C146.552216,171.700729 145.684937,171.700592 144.381241,171.584198 
	C140.295715,171.316299 136.646606,171.164688 132.709152,170.863068 
	C131.563339,170.579071 130.705841,170.445114 129.732803,169.904480 
	C129.498611,157.339798 129.379990,145.181824 129.408325,132.870361 
	C129.336075,132.396515 129.116852,132.076126 128.897614,131.755753 
	C128.527344,132.118195 128.157059,132.480637 127.509071,133.019989 
	C126.082840,134.800583 124.934319,136.404282 123.635605,138.156631 
	C123.291016,138.512009 123.128922,138.741547 122.873795,139.288513 
	C122.473091,140.387680 122.197723,141.192215 121.625076,142.023041 
	C120.797775,142.509491 120.267738,142.969650 119.737694,143.429810 
	C120.459343,143.954437 121.180984,144.479065 122.000404,145.463165 
	C122.070221,153.956207 122.042259,161.989777 121.740822,170.087738 
	C120.969376,170.398880 120.471405,170.645645 119.515221,170.844620 
	C113.382088,171.896744 107.707169,172.996658 102.019562,173.709732 
	C101.654678,171.833893 101.302483,170.344879 101.135788,168.565323 
	C105.130539,165.428314 105.543930,161.574432 105.071808,157.168320 
	C104.854958,155.144608 105.202827,152.544281 106.349800,150.978287 
	C111.818077,143.512299 117.648781,136.311783 123.606232,128.894714 
	C124.212891,128.137375 124.563866,127.502151 124.934921,126.899010 
	C124.955002,126.931091 124.880356,126.918533 125.205940,126.933853 
	C126.695900,126.586250 127.860275,126.223335 129.429291,125.745399 
	C137.872391,120.523987 144.359634,125.348801 151.041916,128.939087 
	C151.917282,129.409409 153.014679,129.658020 153.650711,130.342499 
	C154.978928,131.771896 156.617905,133.255753 157.155319,135.014786 
	C159.048019,141.209839 164.178345,144.586395 170.460602,143.299820 
	C176.945999,141.971680 180.341675,136.635239 179.419617,130.034058 
	C179.111130,127.825500 180.028107,125.445778 180.663757,122.979042 
	C190.381256,110.881271 199.819931,98.948753 209.548615,87.019608 
	C210.225220,87.014450 210.611816,87.005936 211.348190,87.098557 
	C216.248169,91.494957 221.964783,89.529953 227.210907,90.090042 
	C227.167053,91.616447 226.897537,93.176292 227.117981,94.663521 
	C228.127319,101.473282 229.273880,108.262688 229.972198,115.528709 
	C228.708694,116.502747 227.844177,117.007477 226.979660,117.512207 
	C223.620972,117.634712 220.262283,117.757202 216.018585,117.855453 
	C212.418930,117.931351 209.704300,118.031487 206.989655,118.131615 
z"/>
<path fill="#F7F9FA" opacity="1.000000" stroke="none" 
	d="
M187.009262,125.464134 
	C187.169266,125.325790 187.347336,125.216980 187.694519,125.094833 
	C201.778046,125.051956 215.710526,125.051956 230.948303,125.051956 
	C229.844391,132.321640 229.164780,139.173019 227.649475,145.834320 
	C226.816284,149.497086 227.269409,151.779587 229.926254,154.592392 
	C238.317535,163.476288 241.761185,174.415161 237.386017,185.870071 
	C230.523529,203.837189 214.641663,214.025146 194.451721,205.473404 
	C191.355545,204.161972 189.481979,204.359772 186.992905,206.394058 
	C178.533966,213.307343 168.994354,218.275970 157.841705,221.571060 
	C155.016464,222.249329 152.842346,222.712341 150.647736,223.179703 
	C156.028549,216.347260 161.928711,210.199966 166.204575,203.077530 
	C171.277283,194.627716 177.793839,186.250641 175.530640,174.761536 
	C177.948624,168.763870 179.948746,163.052109 182.561218,157.635712 
	C185.244415,152.072586 186.235855,146.594406 183.986893,140.725128 
	C184.264099,139.613708 184.541306,138.502289 185.347534,136.938736 
	C186.254135,132.812454 186.631699,129.138290 187.009262,125.464134 
M185.815140,163.530701 
	C176.891724,178.451599 184.404877,197.220535 201.071625,201.643677 
	C215.857620,205.567688 229.077713,196.457291 232.652878,179.414566 
	C232.446945,176.943253 232.241028,174.471924 232.146500,171.235687 
	C229.239883,160.830597 223.121170,153.783264 211.303177,151.573410 
	C204.759216,150.377563 198.858932,151.846619 193.017410,155.997864 
	C192.332809,156.633331 191.648193,157.268799 190.352280,158.124313 
	C189.015732,159.754074 187.679184,161.383850 185.815140,163.530701 
z"/>
<path fill="#F8FAFB" opacity="1.000000" stroke="none" 
	d="
M137.975418,222.920959 
	C135.099945,223.449051 132.224472,223.977158 129.279419,223.794739 
	C129.209839,208.085861 129.209839,193.087509 129.209839,177.566879 
	C136.817627,178.117294 143.404297,178.593811 150.214310,179.238510 
	C150.980423,179.420105 151.523178,179.433517 152.439301,179.594086 
	C153.876572,179.819595 154.940460,179.897964 156.271759,180.154541 
	C157.377136,180.436981 158.215103,180.541245 159.411224,180.801025 
	C162.465103,181.662704 165.160812,182.368881 167.891418,183.427155 
	C167.693420,185.271500 167.868988,186.999390 167.164948,188.219833 
	C159.499527,201.507767 151.387192,214.455353 137.975418,222.920959 
z"/>
<path fill="#F9FBFC" opacity="1.000000" stroke="none" 
	d="
M93.152710,202.949036 
	C89.776283,196.993668 86.373741,191.052765 83.055687,185.065048 
	C82.628784,184.294662 82.640350,183.281296 83.078125,182.277634 
	C84.847870,181.930466 85.988289,181.686142 87.549377,181.408844 
	C99.165169,179.606125 110.315315,177.282501 122.439011,178.125290 
	C122.439011,183.409348 122.439011,188.191711 122.324539,193.409943 
	C122.289917,196.239777 122.369774,198.633759 122.340546,201.482941 
	C122.305092,208.286697 122.378723,214.635269 122.452354,220.983826 
	C122.247826,222.275040 122.043297,223.566238 121.710533,225.667007 
	C117.828476,223.993805 114.284126,222.466156 110.168236,220.698944 
	C104.115364,214.622589 98.634041,208.785812 93.152710,202.949036 
z"/>
<path fill="#22609A" opacity="1.000000" stroke="none" 
	d="
M122.767838,220.915756 
	C122.378723,214.635269 122.305092,208.286697 122.647392,201.544983 
	C124.099014,202.032898 125.134705,202.914001 126.401611,203.991806 
	C126.401611,198.870819 126.401611,194.051361 126.401611,189.145828 
	C124.833664,190.660614 123.636337,191.817352 122.439011,192.974091 
	C122.439011,188.191711 122.439011,183.409348 122.439011,178.125290 
	C110.315315,177.282501 99.165169,179.606125 87.564171,181.030991 
	C87.845009,179.750351 88.531731,178.814575 89.568802,177.914825 
	C91.327293,177.499084 92.735435,177.047318 94.533096,176.509857 
	C97.292496,175.648300 99.662369,174.872437 102.032242,174.096558 
	C107.707169,172.996658 113.382088,171.896744 119.706497,171.001007 
	C120.908760,170.811249 121.461533,170.417313 122.014297,170.023346 
	C122.042259,161.989777 122.070221,153.956207 122.118904,145.096863 
	C122.067207,143.512985 121.994774,142.754868 121.922348,141.996765 
	C122.197723,141.192215 122.473091,140.387680 123.135040,139.248871 
	C123.609688,138.612427 123.697754,138.310211 123.785812,138.007996 
	C124.934319,136.404282 126.082840,134.800583 127.878220,133.061020 
	C128.770508,132.958054 129.015930,132.990952 129.261353,133.023834 
	C129.379990,145.181824 129.498611,157.339798 129.817261,170.172394 
	C131.010681,170.902344 132.004074,170.957703 132.997482,171.013077 
	C136.646606,171.164688 140.295715,171.316299 144.540375,171.785202 
	C146.088333,172.082077 147.040787,172.061661 147.993225,172.041260 
	C149.163651,172.147827 150.334061,172.254395 151.711639,172.899124 
	C151.282349,174.962494 150.645905,176.487671 149.998993,178.277130 
	C149.989319,178.717697 149.990143,178.894012 149.990952,179.070343 
	C143.404297,178.593811 136.817627,178.117294 129.209839,177.566879 
	C129.209839,193.087509 129.209839,208.085861 129.094467,223.540192 
	C127.998703,221.794266 127.018303,219.592407 126.008308,217.324066 
	C125.120598,218.393463 124.101959,219.620575 122.767838,220.915756 
z"/>
<path fill="#F7F9FA" opacity="1.000000" stroke="none" 
	d="
M53.244278,197.166718 
	C53.407421,196.096848 53.634983,194.687927 54.363899,194.345169 
	C61.395470,191.038620 68.511391,187.911453 74.874649,185.059509 
	C80.646584,194.360046 86.017342,203.014160 91.782059,212.159851 
	C95.154915,216.293427 98.133812,219.935440 101.112709,223.577454 
	C99.343170,223.027237 97.573631,222.477005 95.202515,221.748398 
	C94.064095,221.499268 93.527267,221.428543 92.990433,221.357803 
	C91.904930,220.880966 90.819420,220.404144 89.179855,219.716415 
	C88.069359,219.389740 87.512917,219.273972 86.956482,219.158203 
	C84.868477,218.137115 82.780479,217.116058 80.111954,215.817352 
	C75.052475,212.950150 70.573509,210.360580 66.094543,207.770996 
	C61.910141,204.288116 57.725735,200.805237 53.244278,197.166718 
z"/>
<path fill="#2A659F" opacity="1.000000" stroke="none" 
	d="
M138.020782,223.279663 
	C151.387192,214.455353 159.499527,201.507767 167.164948,188.219833 
	C167.868988,186.999390 167.693420,185.271500 168.136383,183.194183 
	C169.226501,181.057068 170.106506,179.505035 171.021027,177.759003 
	C171.129547,177.310059 171.164215,177.049866 171.159592,176.784424 
	C171.159592,176.784424 171.142517,176.454651 171.400696,176.255936 
	C171.744080,175.876648 171.829285,175.696075 171.914520,175.515488 
	C172.221115,174.846619 172.527725,174.177750 173.125916,173.499954 
	C174.072220,174.053070 174.726929,174.615097 175.381653,175.177139 
	C177.793839,186.250641 171.277283,194.627716 166.204575,203.077530 
	C161.928711,210.199966 156.028549,216.347260 150.647736,223.179703 
	C152.842346,222.712341 155.016464,222.249329 157.560837,221.797577 
	C159.255356,227.631683 159.260117,227.532318 153.496124,227.256012 
	C151.740631,227.171860 149.892197,227.610214 148.188202,228.138123 
	C143.432373,229.611511 140.312164,227.672882 138.020782,223.279663 
z"/>
<path fill="#FAFCFD" opacity="1.000000" stroke="none" 
	d="
M227.580261,90.169777 
	C221.964783,89.529953 216.248169,91.494957 211.351883,86.735626 
	C211.018509,85.545677 211.031219,84.819786 211.032669,84.063171 
	C211.021423,84.032433 211.086823,84.035233 211.359467,83.928604 
	C212.092316,83.227966 212.552505,82.633957 213.101501,81.712128 
	C215.456070,78.585449 217.721832,75.786591 220.366180,72.953629 
	C220.996536,72.890854 221.248322,72.862167 221.604218,73.219376 
	C221.784286,75.422119 221.875916,77.238503 221.932816,79.055962 
	C222.035370,82.330719 223.859665,83.958221 226.984146,83.843399 
	C230.147064,83.727158 230.392563,81.346313 230.347397,78.847000 
	C230.251953,73.565285 230.221909,68.282379 230.502350,63.042439 
	C232.504089,63.723389 234.168518,64.361862 235.832947,65.000343 
	C235.872604,71.020508 235.912247,77.040680 235.953033,83.529915 
	C233.285980,86.082497 230.617783,88.166008 227.580261,90.169777 
z"/>
<path fill="#2D6CA5" opacity="1.000000" stroke="none" 
	d="
M101.262878,223.799835 
	C98.133812,219.935440 95.154915,216.293427 92.074112,212.329224 
	C96.576889,207.885513 89.983582,207.443237 89.628754,204.126724 
	C90.377998,203.822906 91.404320,203.406738 92.791679,202.969788 
	C98.634041,208.785812 104.115364,214.622589 109.795731,220.731079 
	C107.134201,222.009247 104.273621,223.015717 101.262878,223.799835 
z"/>
<path fill="#2D6CA5" opacity="1.000000" stroke="none" 
	d="
M66.150833,208.122147 
	C70.573509,210.360580 75.052475,212.950150 79.756172,215.798309 
	C78.221451,218.894379 76.013580,219.698914 73.541779,217.058258 
	C70.972305,214.313217 68.642014,211.344299 66.150833,208.122147 
z"/>
<path fill="#3673A8" opacity="1.000000" stroke="none" 
	d="
M207.040894,118.489105 
	C209.704300,118.031487 212.418930,117.931351 215.570282,117.958321 
	C214.829834,119.350212 213.578369,121.709450 212.492096,121.635696 
	C210.637527,121.509781 208.886612,119.857666 207.040894,118.489105 
z"/>
<path fill="#F7F9FA" opacity="1.000000" stroke="none" 
	d="
M227.268280,117.639206 
	C227.844177,117.007477 228.708694,116.502747 229.892227,115.970581 
	C229.326447,116.550827 228.441681,117.158516 227.268280,117.639206 
z"/>
<path fill="#2D6CA5" opacity="1.000000" stroke="none" 
	d="
M87.041687,219.382751 
	C87.512917,219.273972 88.069359,219.389740 88.822395,219.716324 
	C88.388298,219.820511 87.757599,219.713898 87.041687,219.382751 
z"/>
<path fill="#2D6CA5" opacity="1.000000" stroke="none" 
	d="
M93.081314,221.566437 
	C93.527267,221.428543 94.064095,221.499268 94.806915,221.752167 
	C94.399338,221.881226 93.785767,221.828140 93.081314,221.566437 
z"/>
<path fill="#FAFCFC" opacity="1.000000" stroke="none" 
	d="
M235.915741,64.564941 
	C234.168518,64.361862 232.504089,63.723389 230.394135,62.660305 
	C229.708633,60.460552 229.468689,58.685413 229.178650,56.582199 
	C228.443069,55.774055 227.757584,55.293983 226.791565,54.561436 
	C225.065414,54.415638 223.544220,54.268536 222.187225,54.672718 
	C216.173889,56.463791 210.167725,58.299606 204.252060,60.383522 
	C202.737122,60.917198 200.467529,62.425938 200.477142,63.468880 
	C200.493195,65.208824 202.067673,66.934402 203.094116,68.835861 
	C203.805939,68.845940 204.409683,68.686188 205.353790,68.340820 
	C207.434998,67.697220 209.175797,67.239220 211.154099,67.039825 
	C211.753006,67.595154 212.114441,67.891876 212.334351,68.508789 
	C200.024765,84.837418 187.856674,100.845840 175.399719,117.053528 
	C173.134537,122.234581 167.963760,119.574280 165.039413,121.413460 
	C159.304001,125.020561 155.232910,122.011314 150.716171,119.529686 
	C148.391113,118.252243 145.829514,117.324448 143.711685,115.777458 
	C142.150253,114.636871 140.681213,112.933220 139.961639,111.159676 
	C137.912628,106.109337 134.921692,103.853027 128.752090,103.515656 
	C127.981567,103.561073 127.465996,103.723541 126.581284,103.862778 
	C120.514252,106.009575 116.819702,110.057014 118.116302,114.815613 
	C119.610680,120.300041 117.196190,123.549934 114.119865,127.160126 
	C111.097183,130.707352 108.468491,134.588593 105.479027,138.166275 
	C101.328125,143.133911 98.729294,150.350296 90.163162,149.250885 
	C86.283279,153.552628 82.735840,150.343811 79.131180,148.746658 
	C77.000282,147.802475 74.717323,147.053360 72.836288,145.739136 
	C71.264290,144.640839 69.625381,143.055756 68.976166,141.325912 
	C66.826721,135.598724 61.775852,132.264633 56.208458,133.421356 
	C50.247608,134.659836 46.663445,140.266068 47.214912,146.549423 
	C47.406052,148.727188 46.792191,151.455704 45.530960,153.197784 
	C40.062527,160.751053 34.189777,168.010452 28.528978,175.426285 
	C26.761091,177.742264 25.865284,180.219833 28.884760,182.320999 
	C31.737976,184.306473 33.493004,182.456207 35.124378,180.371750 
	C39.948948,174.207275 44.815823,168.075195 49.577473,161.862473 
	C52.438667,158.129364 54.474564,153.217941 60.744110,155.088043 
	C61.271412,155.245316 62.194832,154.932693 62.597385,154.514297 
	C65.810173,151.175110 68.857269,152.888504 72.034142,154.589569 
	C74.666344,155.999008 77.477043,157.076538 80.099586,158.501816 
	C81.170502,159.083817 82.346252,160.025314 82.807068,161.091614 
	C87.138031,171.113190 91.042374,172.831375 100.950287,168.855865 
	C101.302483,170.344879 101.654678,171.833893 102.019562,173.709732 
	C99.662369,174.872437 97.292496,175.648300 94.134888,176.348999 
	C91.923988,176.141052 90.500824,176.008255 88.740532,175.635345 
	C85.590797,175.353714 82.778206,175.312210 79.965607,175.270691 
	C79.879280,174.646774 79.792953,174.022858 79.724579,172.649231 
	C79.171356,166.456085 77.818596,161.501984 71.636368,159.904694 
	C70.689690,159.660110 69.583725,160.031998 68.551437,160.118774 
	C68.866745,161.081146 69.182060,162.043503 69.497375,163.005875 
	C70.569336,167.108810 71.641289,171.211746 72.605072,175.939423 
	C72.311348,177.326035 72.125801,178.087906 71.940254,178.849762 
	C71.940254,178.849762 71.916862,178.948898 71.540451,178.949112 
	C70.106819,179.517151 69.049599,180.084991 67.992371,180.652802 
	C63.071125,182.903488 57.728004,184.545135 53.348904,187.578461 
	C49.085182,190.531891 46.310417,190.973892 43.377125,186.008698 
	C42.324142,183.858261 41.614864,183.211243 39.555691,184.922440 
	C37.458157,186.665543 34.683281,188.875015 32.337856,188.730087 
	C29.038176,188.526169 25.203209,187.049011 22.799360,184.819885 
	C19.850414,182.085297 19.159510,177.039932 22.168791,174.338196 
	C31.107859,166.312729 27.804531,157.733719 24.598959,148.881882 
	C24.262226,147.952011 24.128487,146.948624 23.888817,145.421295 
	C23.826584,144.637054 23.760160,144.415665 23.677794,144.199066 
	C23.392879,143.149002 23.107964,142.098938 22.874741,140.307739 
	C22.710838,138.730103 22.495245,137.893600 22.279650,137.057098 
	C22.265114,133.014816 22.250576,128.972519 23.065441,124.878777 
	C37.194645,124.827316 50.494450,124.827316 61.901398,124.827316 
	C65.851746,128.387589 68.527679,130.799301 71.800766,133.749191 
	C71.978325,130.513565 72.102905,128.243408 72.365128,125.849960 
	C72.678993,125.553375 72.837692,125.365288 73.434631,125.039047 
	C83.991173,124.876564 94.095894,124.656105 104.191002,124.876381 
	C109.092133,124.983322 110.639153,122.282730 111.737389,118.078232 
	C107.219238,117.853073 103.109367,117.648254 98.757568,117.171555 
	C92.457100,116.599976 86.400032,116.141205 80.339226,116.085129 
	C78.157227,116.064926 75.966255,117.013031 73.376480,117.539162 
	C72.545128,116.372200 72.116661,115.185326 71.788528,113.553047 
	C73.268929,101.739418 74.649002,90.371193 76.029068,79.002960 
	C77.147881,75.499954 78.266678,71.996956 79.963776,68.201782 
	C81.378586,67.562912 82.215103,67.216202 83.051613,66.869492 
	C85.136093,67.246437 87.220573,67.623390 89.754387,68.387360 
	C90.823692,68.795479 91.443672,68.816574 92.063644,68.837662 
	C95.104645,69.191231 98.145653,69.544800 101.987381,69.970734 
	C104.173256,70.098190 105.558418,70.153267 107.305252,70.384163 
	C110.443634,70.861481 113.220322,71.162994 116.170021,71.715721 
	C117.602180,71.879158 118.861343,71.791374 120.441864,71.617935 
	C121.193184,71.631783 121.623131,71.731300 122.035156,72.309822 
	C122.085663,80.865791 122.154106,88.942741 122.189583,97.273117 
	C122.429153,97.616821 122.701691,97.707123 123.384506,97.844818 
	C125.521919,97.575493 127.249062,97.258766 129.644897,96.819412 
	C129.644897,88.726334 129.644897,80.858734 129.936157,72.934433 
	C130.819641,72.403038 131.411850,71.928345 132.456085,71.349480 
	C136.599411,70.908722 140.290710,70.572128 144.234650,70.324570 
	C144.998810,70.292908 145.510345,70.172195 146.436981,70.119644 
	C148.230331,69.981911 149.608627,69.776031 151.297531,69.638008 
	C152.414703,69.491348 153.221237,69.276825 154.453720,69.113739 
	C159.253143,68.442032 163.626617,67.718887 168.139587,67.300995 
	C169.484818,68.070824 170.690598,68.535400 172.097687,69.324623 
	C174.621872,80.118217 176.944748,90.587158 179.308990,101.242577 
	C183.282516,97.596428 185.867172,93.812805 184.038620,87.881927 
	C182.037888,81.392593 180.950500,74.627045 179.161041,68.064774 
	C178.342209,65.061905 178.824066,63.523285 181.956116,62.517979 
	C185.738846,61.303814 189.344040,59.536510 193.376129,57.984692 
	C195.174973,57.033260 196.623749,56.105743 198.055496,55.132755 
	C198.038467,55.087280 198.129898,55.054523 198.482758,55.020767 
	C201.228882,54.551952 203.622131,54.116890 206.341583,53.461548 
	C209.775497,52.148354 212.883194,51.055447 215.990906,49.962540 
	C220.731232,49.567947 225.471558,49.173351 230.607849,48.843033 
	C236.172684,52.831665 236.071289,58.485310 235.915741,64.564941 
z"/>
<path fill="#FAFCFC" opacity="1.000000" stroke="none" 
	d="
M62.655762,59.810730 
	C66.275681,61.306969 69.545120,62.766014 72.971596,64.295135 
	C71.781563,69.033234 70.631653,73.611557 69.309616,78.932533 
	C67.755791,91.007919 66.374107,102.340652 64.880905,114.018250 
	C64.990700,117.789452 62.777500,117.848358 60.231346,117.858330 
	C49.152969,117.901672 38.075039,118.058319 26.996944,118.173798 
	C25.220497,117.931435 23.444050,117.689072 21.198053,117.382637 
	C21.950439,92.221886 31.373451,70.901199 47.349892,52.093674 
	C52.575695,54.777218 57.440487,57.275379 62.655762,59.810730 
z"/>
<path fill="#F7F9FA" opacity="1.000000" stroke="none" 
	d="
M99.835083,21.536427 
	C90.137764,30.300289 83.803940,41.048145 78.151558,52.280777 
	C77.482567,53.610226 76.866356,54.966469 76.183151,56.288315 
	C76.045044,56.555546 75.714622,56.723381 75.060570,57.301414 
	C72.547249,56.363766 69.795082,55.337009 66.647064,54.284821 
	C61.787430,51.836281 57.323639,49.413177 51.883133,46.459881 
	C56.678459,42.519642 60.249828,38.636356 64.623558,36.184151 
	C74.441772,30.679399 84.616150,25.797569 94.763596,20.907125 
	C96.113693,20.256464 98.150482,21.030653 99.835083,21.536427 
z"/>
<path fill="#2D6CA5" opacity="1.000000" stroke="none" 
	d="
M26.953835,118.502419 
	C38.075039,118.058319 49.152969,117.901672 60.231346,117.858330 
	C62.777500,117.848358 64.990700,117.789452 65.363617,114.085403 
	C67.867966,113.871269 69.778076,113.934860 71.688194,113.998444 
	C72.116661,115.185326 72.545128,116.372200 73.785934,117.643890 
	C82.732025,117.633621 90.865761,117.538536 98.999496,117.443451 
	C103.109367,117.648254 107.219238,117.853073 111.737389,118.078232 
	C110.639153,122.282730 109.092133,124.983322 104.191002,124.876381 
	C94.095894,124.656105 83.991173,124.876564 73.187561,125.008598 
	C72.138763,125.315308 72.053017,125.605881 72.227478,125.973236 
	C72.102905,128.243408 71.978325,130.513565 71.800766,133.749191 
	C68.527679,130.799301 65.851746,128.387589 61.901398,124.827316 
	C50.494450,124.827316 37.194645,124.827316 23.440144,124.701241 
	C24.293875,122.660454 25.602299,120.745750 26.953835,118.502419 
z"/>
<path fill="#FAFCFD" opacity="1.000000" stroke="none" 
	d="
M22.224163,137.384949 
	C22.495245,137.893600 22.710838,138.730103 22.925083,139.896225 
	C22.672047,139.388168 22.420361,138.550491 22.224163,137.384949 
z"/>
<path fill="#FAFCFD" opacity="1.000000" stroke="none" 
	d="
M23.624622,144.381622 
	C23.760160,144.415665 23.826584,144.637054 23.907887,145.034698 
	C23.708572,145.053741 23.586153,144.839737 23.624622,144.381622 
z"/>
<path fill="#2C68A0" opacity="1.000000" stroke="none" 
	d="
M129.644897,72.991142 
	C129.644897,80.858734 129.644897,88.726334 129.644897,96.819412 
	C127.249062,97.258766 125.521919,97.575493 123.278954,97.697052 
	C122.606148,97.315147 122.425949,97.154419 122.222549,97.019699 
	C122.154106,88.942741 122.085663,80.865791 122.031235,71.918945 
	C121.949097,68.657227 121.852951,66.265396 121.834534,63.418159 
	C122.031509,50.972515 122.150764,38.982273 122.270012,26.992035 
	C124.240059,26.361216 126.210098,25.730396 128.690155,25.445385 
	C129.200150,38.494068 129.200150,51.196941 129.200150,65.509369 
	C143.219040,63.200092 155.919495,61.107998 168.797775,58.891685 
	C168.668243,58.172382 168.360916,57.577297 167.808151,56.734291 
	C162.057281,44.532902 154.853714,33.792770 145.017654,24.933607 
	C145.617737,23.810165 146.217819,22.686726 147.208466,21.180134 
	C148.096130,20.468824 148.593246,20.140661 149.396500,19.950350 
	C160.048065,29.522188 167.930817,40.711700 173.766022,53.422253 
	C174.372437,54.743149 176.557068,56.682037 177.260452,56.408474 
	C184.392502,53.634594 191.368713,50.460037 199.424454,46.945969 
	C194.435104,42.533367 190.735733,39.261616 187.036346,35.989864 
	C192.159042,35.806561 197.284485,35.443386 202.403214,35.521080 
	C204.722229,35.556271 207.027939,36.466633 209.434387,37.001003 
	C206.942337,43.746807 206.979004,43.658268 213.144669,46.211807 
	C214.288803,46.685654 215.004745,48.193325 215.954620,49.593197 
	C212.883194,51.055447 209.775497,52.148354 205.989746,53.344597 
	C202.380386,51.581196 200.050720,52.404026 198.129898,55.054523 
	C198.129898,55.054523 198.038467,55.087280 197.714233,55.183914 
	C195.935349,56.189899 194.480713,57.099255 193.026077,58.008610 
	C189.344040,59.536510 185.738846,61.303814 181.956116,62.517979 
	C178.824066,63.523285 178.342209,65.061905 179.161041,68.064774 
	C180.950500,74.627045 182.037888,81.392593 184.038620,87.881927 
	C185.867172,93.812805 183.282516,97.596428 179.308990,101.242577 
	C176.944748,90.587158 174.621872,80.118217 172.118454,68.984848 
	C171.334137,65.771767 169.934555,65.588753 168.000107,66.995743 
	C163.626617,67.718887 159.253143,68.442032 154.242340,68.940552 
	C152.732315,69.000664 151.859619,69.285408 150.986908,69.570145 
	C149.608627,69.776031 148.230331,69.981911 146.283325,69.976410 
	C145.137070,69.921860 144.559555,70.078690 143.982025,70.235519 
	C140.290710,70.572128 136.599411,70.908722 132.113556,71.264465 
	C130.760971,71.852783 130.202927,72.421967 129.644897,72.991142 
M125.424057,40.654182 
	C125.855469,40.509350 126.286873,40.364517 126.718285,40.219688 
	C126.553116,39.823959 126.387955,39.428230 126.222786,39.032501 
	C125.903526,39.425591 125.584267,39.818680 125.424057,40.654182 
z"/>
<path fill="#F8FAFB" opacity="1.000000" stroke="none" 
	d="
M144.745285,24.875040 
	C154.853714,33.792770 162.057281,44.532902 167.839279,57.087852 
	C168.283875,58.131523 168.451920,58.573711 168.619965,59.015900 
	C155.919495,61.107998 143.219040,63.200092 129.200150,65.509369 
	C129.200150,51.196941 129.200150,38.494068 129.097321,25.437050 
	C129.718765,22.528786 130.443039,19.974665 131.586594,17.443409 
	C134.404816,18.676680 136.803741,19.887087 139.716171,21.461527 
	C141.107468,22.321201 141.985275,22.816841 142.863083,23.312481 
	C143.399689,23.813810 143.936310,24.315142 144.745285,24.875040 
z"/>
<path fill="#F6F8F8" opacity="1.000000" stroke="none" 
	d="
M186.707916,35.894768 
	C190.735733,39.261616 194.435104,42.533367 199.424454,46.945969 
	C191.368713,50.460037 184.392502,53.634594 177.260452,56.408474 
	C176.557068,56.682037 174.372437,54.743149 173.766022,53.422253 
	C167.930817,40.711700 160.048065,29.522188 149.445175,19.765215 
	C149.187698,19.442228 149.046585,19.086378 149.046585,19.086378 
	C162.765976,21.809248 174.867630,28.145718 186.707916,35.894768 
z"/>
<path fill="#3974AB" opacity="1.000000" stroke="none" 
	d="
M148.825562,18.882160 
	C149.046585,19.086378 149.187698,19.442228 149.139023,19.627363 
	C148.593246,20.140661 148.096130,20.468824 147.308578,20.875996 
	C146.668060,20.255909 146.317993,19.556812 145.967926,18.857712 
	C146.846802,18.797789 147.725662,18.737865 148.825562,18.882160 
z"/>
<path fill="#3974AB" opacity="1.000000" stroke="none" 
	d="
M142.828217,22.994825 
	C141.985275,22.816841 141.107468,22.321201 140.063019,21.569208 
	C140.862045,21.767628 141.827698,22.222399 142.828217,22.994825 
z"/>
<path fill="#2A639C" opacity="1.000000" stroke="none" 
	d="
M80.125443,175.559937 
	C82.778206,175.312210 85.590797,175.353714 88.753571,175.970306 
	C89.141991,176.989868 89.180222,177.434326 89.218460,177.878799 
	C88.531731,178.814575 87.845009,179.750351 87.143494,181.063980 
	C85.988289,181.686142 84.847870,181.930466 83.353073,182.070450 
	C82.094223,179.927139 81.189751,177.888153 80.125443,175.559937 
z"/>
<path fill="#F7F9FA" opacity="1.000000" stroke="none" 
	d="
M69.727432,162.675125 
	C69.182060,162.043503 68.866745,161.081146 68.551437,160.118774 
	C69.583725,160.031998 70.689690,159.660110 71.636368,159.904694 
	C77.818596,161.501984 79.171356,166.456085 79.746765,172.333893 
	C78.888206,170.949188 77.628387,169.209839 77.243721,167.294724 
	C76.393600,163.062378 73.796318,161.915085 69.727432,162.675125 
z"/>
<path fill="#F7F9FA" opacity="1.000000" stroke="none" 
	d="
M68.301987,180.778473 
	C69.049599,180.084991 70.106819,179.517151 71.491089,178.936584 
	C70.749283,179.583954 69.680443,180.244049 68.301987,180.778473 
z"/>
<path fill="#F7F9FA" opacity="1.000000" stroke="none" 
	d="
M72.288445,178.836533 
	C72.125801,178.087906 72.311348,177.326035 72.661057,176.317978 
	C72.762352,176.988953 72.699493,177.906128 72.288445,178.836533 
z"/>
<path fill="#2A679F" opacity="1.000000" stroke="none" 
	d="
M33.292938,203.035782 
	C33.098461,203.109802 32.908566,203.063538 32.718674,203.017273 
	C32.911625,202.983337 33.104576,202.949402 33.292938,203.035782 
z"/>
<path fill="#F9FBFC" opacity="1.000000" stroke="none" 
	d="
M122.178345,26.551056 
	C122.150764,38.982273 122.031509,50.972515 121.390518,63.461842 
	C115.574402,63.757416 110.280022,63.553905 104.603180,63.215603 
	C103.147827,63.054882 102.074928,63.028954 101.002037,63.003025 
	C98.938934,62.621975 96.875824,62.240925 94.190079,61.743256 
	C93.034859,61.595398 92.502281,61.564159 91.969704,61.532921 
	C91.233856,61.326550 90.498001,61.120171 89.158463,60.803108 
	C88.025963,60.651909 87.497154,60.611397 86.968353,60.570885 
	C85.779785,60.076752 84.591217,59.582623 82.756287,58.819775 
	C91.628593,40.958080 100.990898,24.209873 122.086678,16.453329 
	C122.086678,20.310980 122.086678,23.210527 122.178345,26.551056 
z"/>
<path fill="#2A679F" opacity="1.000000" stroke="none" 
	d="
M71.788528,113.553047 
	C69.778076,113.934860 67.867966,113.871269 65.475128,113.740540 
	C66.374107,102.340652 67.755791,91.007919 69.293922,79.356125 
	C71.331497,79.025536 73.212624,79.014008 75.561409,79.002716 
	C74.649002,90.371193 73.268929,101.739418 71.788528,113.553047 
z"/>
<path fill="#2A679F" opacity="1.000000" stroke="none" 
	d="
M101.009422,63.388306 
	C102.074928,63.028954 103.147827,63.054882 104.643570,63.566612 
	C105.692131,66.104393 106.317848,68.156372 106.943573,70.208351 
	C105.558418,70.153267 104.173256,70.098190 102.391701,69.909370 
	C101.669136,67.774956 101.342972,65.774269 101.009422,63.388306 
z"/>
<path fill="#FAFCFD" opacity="1.000000" stroke="none" 
	d="
M82.796364,66.663750 
	C82.215103,67.216202 81.378586,67.562912 80.194473,67.927017 
	C80.744949,67.448936 81.643036,66.953476 82.796364,66.663750 
z"/>
<path fill="#FAFCFD" opacity="1.000000" stroke="none" 
	d="
M91.849854,68.660202 
	C91.443672,68.816574 90.823692,68.795479 90.103935,68.567917 
	C90.548119,68.401871 91.092087,68.442307 91.849854,68.660202 
z"/>
<path fill="#306CA4" opacity="1.000000" stroke="none" 
	d="
M92.069633,61.730103 
	C92.502281,61.564159 93.034859,61.595398 93.789352,61.783699 
	C93.397362,61.936268 92.783463,61.931774 92.069633,61.730103 
z"/>
<path fill="#306CA4" opacity="1.000000" stroke="none" 
	d="
M87.066902,60.766121 
	C87.497154,60.611397 88.025963,60.651909 88.775269,60.851753 
	C88.385674,60.994511 87.775558,60.977932 87.066902,60.766121 
z"/>
<path fill="#2F6AA3" opacity="1.000000" stroke="none" 
	d="
M101.135788,168.565323 
	C91.042374,172.831375 87.138031,171.113190 82.807068,161.091614 
	C82.346252,160.025314 81.170502,159.083817 80.099586,158.501816 
	C77.477043,157.076538 74.666344,155.999008 72.034142,154.589569 
	C68.857269,152.888504 65.810173,151.175110 62.597385,154.514297 
	C62.194832,154.932693 61.271412,155.245316 60.744110,155.088043 
	C54.474564,153.217941 52.438667,158.129364 49.577473,161.862473 
	C44.815823,168.075195 39.948948,174.207275 35.124378,180.371750 
	C33.493004,182.456207 31.737976,184.306473 28.884760,182.320999 
	C25.865284,180.219833 26.761091,177.742264 28.528978,175.426285 
	C34.189777,168.010452 40.062527,160.751053 45.530960,153.197784 
	C46.792191,151.455704 47.406052,148.727188 47.214912,146.549423 
	C46.663445,140.266068 50.247608,134.659836 56.208458,133.421356 
	C61.775852,132.264633 66.826721,135.598724 68.976166,141.325912 
	C69.625381,143.055756 71.264290,144.640839 72.836288,145.739136 
	C74.717323,147.053360 77.000282,147.802475 79.131180,148.746658 
	C82.735840,150.343811 86.283279,153.552628 90.163162,149.250885 
	C98.729294,150.350296 101.328125,143.133911 105.479027,138.166275 
	C108.468491,134.588593 111.097183,130.707352 114.119865,127.160126 
	C117.196190,123.549934 119.610680,120.300041 118.116302,114.815613 
	C116.819702,110.057014 120.514252,106.009575 126.740479,104.010315 
	C127.848206,103.998276 128.427628,103.815483 129.007034,103.632690 
	C134.921692,103.853027 137.912628,106.109337 139.961639,111.159676 
	C140.681213,112.933220 142.150253,114.636871 143.711685,115.777458 
	C145.829514,117.324448 148.391113,118.252243 150.716171,119.529686 
	C155.232910,122.011314 159.304001,125.020561 165.039413,121.413460 
	C167.963760,119.574280 173.134537,122.234581 175.672333,117.306900 
	C177.617523,119.288773 179.001221,121.216537 180.384918,123.144295 
	C180.028107,125.445778 179.111130,127.825500 179.419617,130.034058 
	C180.341675,136.635239 176.945999,141.971680 170.460602,143.299820 
	C164.178345,144.586395 159.048019,141.209839 157.155319,135.014786 
	C156.617905,133.255753 154.978928,131.771896 153.650711,130.342499 
	C153.014679,129.658020 151.917282,129.409409 151.041916,128.939087 
	C144.359634,125.348801 137.872391,120.523987 129.105499,125.576477 
	C127.211517,125.987885 126.045937,126.453209 124.880356,126.918533 
	C124.880356,126.918533 124.955002,126.931091 124.650055,126.992432 
	C124.013580,127.708115 123.682060,128.362457 123.350540,129.016815 
	C117.648781,136.311783 111.818077,143.512299 106.349800,150.978287 
	C105.202827,152.544281 104.854958,155.144608 105.071808,157.168320 
	C105.543930,161.574432 105.130539,165.428314 101.135788,168.565323 
z"/>
<path fill="#2B66A1" opacity="1.000000" stroke="none" 
	d="
M180.663757,122.979042 
	C179.001221,121.216537 177.617523,119.288773 175.961212,117.107635 
	C187.856674,100.845840 200.024765,84.837418 212.581635,68.326385 
	C213.161957,67.254326 213.353531,66.684860 213.545090,66.115395 
	C212.668930,66.337341 211.792770,66.559288 210.916611,66.781219 
	C209.175797,67.239220 207.434998,67.697220 205.013840,68.281479 
	C203.884338,68.493843 203.435181,68.579941 202.986023,68.666031 
	C202.067673,66.934402 200.493195,65.208824 200.477142,63.468880 
	C200.467529,62.425938 202.737122,60.917198 204.252060,60.383522 
	C210.167725,58.299606 216.173889,56.463791 222.187225,54.672718 
	C223.544220,54.268536 225.065414,54.415638 226.888428,54.869541 
	C227.920135,55.923504 228.574448,56.416889 229.228760,56.910275 
	C229.468689,58.685413 229.708633,60.460552 230.056808,62.617828 
	C230.221909,68.282379 230.251953,73.565285 230.347397,78.847000 
	C230.392563,81.346313 230.147064,83.727158 226.984146,83.843399 
	C223.859665,83.958221 222.035370,82.330719 221.932816,79.055962 
	C221.875916,77.238503 221.784286,75.422119 221.508774,72.922073 
	C220.868683,72.488503 220.428131,72.738121 219.987579,72.987732 
	C217.721832,75.786591 215.456070,78.585449 212.803284,81.808647 
	C211.973114,82.833733 211.529968,83.434486 211.086823,84.035233 
	C211.086823,84.035233 211.021423,84.032433 210.744293,84.168823 
	C210.064301,85.208885 209.661438,86.112556 209.258575,87.016235 
	C199.819931,98.948753 190.381256,110.881271 180.663757,122.979042 
z"/>
<path fill="#346A9F" opacity="1.000000" stroke="none" 
	d="
M175.530640,174.761536 
	C174.726929,174.615097 174.072220,174.053070 173.284973,173.166458 
	C174.606491,165.067200 175.665100,157.186462 177.707764,149.569626 
	C178.533295,146.491302 181.508804,143.989578 183.746414,140.975296 
	C186.235855,146.594406 185.244415,152.072586 182.561218,157.635712 
	C179.948746,163.052109 177.948624,168.763870 175.530640,174.761536 
z"/>
<path fill="#28639C" opacity="1.000000" stroke="none" 
	d="
M170.986511,177.953003 
	C170.106506,179.505035 169.226501,181.057068 168.101501,182.842072 
	C165.160812,182.368881 162.465103,181.662704 159.299988,180.551544 
	C157.888519,180.089813 156.946442,180.033066 156.004364,179.976334 
	C154.940460,179.897964 153.876572,179.819595 152.317261,179.362442 
	C151.217728,178.660065 150.613586,178.336456 150.009460,178.012848 
	C150.645905,176.487671 151.282349,174.962494 152.008774,173.090424 
	C153.454010,172.873917 154.809250,173.004272 156.669434,173.514557 
	C158.112488,173.945267 159.050644,173.996048 159.988785,174.046844 
	C160.436127,174.062164 160.883484,174.077484 161.713226,174.454926 
	C162.734024,174.866699 163.372421,174.916351 164.010803,174.966019 
	C164.456192,174.996796 164.901581,175.027557 165.793488,175.492294 
	C167.822189,176.601837 169.404343,177.277420 170.986511,177.953003 
z"/>
<path fill="#B5CEE0" opacity="1.000000" stroke="none" 
	d="
M186.696793,125.600006 
	C186.631699,129.138290 186.254135,132.812454 185.580566,136.678680 
	C184.991333,134.595505 184.391434,132.303513 184.514130,130.050903 
	C184.594086,128.582962 185.724487,127.172226 186.696793,125.600006 
z"/>
<path fill="#3F78A9" opacity="1.000000" stroke="none" 
	d="
M171.021027,177.759003 
	C169.404343,177.277420 167.822189,176.601837 166.095871,175.643524 
	C167.457489,175.711594 168.963272,176.062408 170.814316,176.598816 
	C171.164215,177.049866 171.129547,177.310059 171.021027,177.759003 
z"/>
<path fill="#F7F9FA" opacity="1.000000" stroke="none" 
	d="
M121.625076,142.023041 
	C121.994774,142.754868 122.067207,143.512985 122.021133,144.637390 
	C121.180984,144.479065 120.459343,143.954437 119.737694,143.429810 
	C120.267738,142.969650 120.797775,142.509491 121.625076,142.023041 
z"/>
<path fill="#F7F9FA" opacity="1.000000" stroke="none" 
	d="
M125.205940,126.933846 
	C126.045937,126.453209 127.211517,125.987885 128.700882,125.691483 
	C127.860275,126.223335 126.695900,126.586250 125.205940,126.933846 
z"/>
<path fill="#5E8EB8" opacity="1.000000" stroke="none" 
	d="
M132.709152,170.863068 
	C132.004074,170.957703 131.010681,170.902344 129.932816,170.579071 
	C130.705841,170.445114 131.563339,170.579071 132.709152,170.863068 
z"/>
<path fill="#3F78A9" opacity="1.000000" stroke="none" 
	d="
M159.726410,173.857300 
	C159.050644,173.996048 158.112488,173.945267 157.058350,173.649567 
	C157.782913,173.492355 158.623474,173.580078 159.726410,173.857300 
z"/>
<path fill="#5E8EB8" opacity="1.000000" stroke="none" 
	d="
M147.706360,171.871063 
	C147.040787,172.061661 146.088333,172.082077 144.976776,171.901459 
	C145.684937,171.700592 146.552216,171.700729 147.706360,171.871063 
z"/>
<path fill="#F7F9FA" opacity="1.000000" stroke="none" 
	d="
M209.548599,87.019600 
	C209.661438,86.112556 210.064301,85.208885 210.755539,84.199554 
	C211.031219,84.819786 211.018509,85.545677 211.002106,86.634491 
	C210.611816,87.005936 210.225220,87.014450 209.548599,87.019600 
z"/>
<path fill="#3F78A9" opacity="1.000000" stroke="none" 
	d="
M163.802734,174.772079 
	C163.372421,174.916351 162.734024,174.866699 162.021179,174.594940 
	C162.496033,174.441284 163.045364,174.509705 163.802734,174.772079 
z"/>
<path fill="#5689B4" opacity="1.000000" stroke="none" 
	d="
M121.740829,170.087738 
	C121.461533,170.417313 120.908760,170.811249 120.164703,171.048798 
	C120.471405,170.645645 120.969376,170.398880 121.740829,170.087738 
z"/>
<path fill="#F7F9FA" opacity="1.000000" stroke="none" 
	d="
M123.606232,128.894714 
	C123.682060,128.362457 124.013580,127.708115 124.629974,126.960342 
	C124.563866,127.502151 124.212891,128.137375 123.606232,128.894714 
z"/>
<path fill="#5E8EB8" opacity="1.000000" stroke="none" 
	d="
M129.408325,132.870361 
	C129.015930,132.990952 128.770508,132.958054 128.155945,132.884125 
	C128.157059,132.480637 128.527344,132.118195 128.897614,131.755753 
	C129.116852,132.076126 129.336075,132.396515 129.408325,132.870361 
z"/>
<path fill="#F7F9FA" opacity="1.000000" stroke="none" 
	d="
M171.771118,175.524994 
	C171.829285,175.696075 171.744080,175.876648 171.361786,176.095474 
	C171.150391,175.835480 171.338058,175.635742 171.771118,175.524994 
z"/>
<path fill="#F7F9FA" opacity="1.000000" stroke="none" 
	d="
M123.635605,138.156631 
	C123.697754,138.310211 123.609688,138.612427 123.260368,138.954254 
	C123.128922,138.741547 123.291016,138.512009 123.635605,138.156631 
z"/>
<path fill="#2C669F" opacity="1.000000" stroke="none" 
	d="
M232.340347,180.095413 
	C229.077713,196.457291 215.857620,205.567688 201.071625,201.643677 
	C184.404877,197.220535 176.891724,178.451599 186.444717,163.256042 
	C190.498169,162.918732 191.076309,160.676117 190.963577,157.904266 
	C191.648193,157.268799 192.332809,156.633331 193.723541,156.025665 
	C196.352341,156.363693 198.304474,157.054199 200.191742,156.907883 
	C204.609192,156.565399 209.434830,156.854538 212.001053,151.964127 
	C223.121170,153.783264 229.239883,160.830597 231.721741,171.625214 
	C229.747543,172.014740 228.198105,172.014740 228.010376,172.014740 
	C226.980225,168.809479 226.175018,166.304092 225.369781,163.798706 
	C222.849060,164.709717 220.328339,165.620743 217.502319,166.547455 
	C216.202179,166.735306 215.207367,166.907455 213.823822,166.923508 
	C208.935272,166.654526 204.357666,163.607956 199.526901,167.059402 
	C197.734070,167.468826 195.808487,167.568314 195.165497,168.527557 
	C194.563232,169.426056 195.319275,171.235031 195.477570,172.643341 
	C197.309052,172.426254 199.140518,172.209167 201.375412,172.028168 
	C203.382355,172.363434 204.974762,172.816940 206.591461,172.933441 
	C211.827072,173.310745 214.615479,176.086029 215.029770,181.599396 
	C210.266129,187.032379 204.450653,187.422134 199.964096,182.376495 
	C197.552155,179.663971 195.822830,179.847687 193.486298,181.817322 
	C195.916382,188.406311 200.772369,191.794891 207.527481,191.795456 
	C213.892548,191.795990 218.663025,188.318924 221.195724,181.792633 
	C224.627380,177.732971 228.411026,178.375397 232.340347,180.095413 
z"/>
<path fill="#2C69A2" opacity="1.000000" stroke="none" 
	d="
M232.496613,179.754990 
	C228.411026,178.375397 224.627380,177.732971 220.850708,181.632843 
	C218.538269,181.552292 216.824020,181.406509 215.109772,181.260742 
	C214.615479,176.086029 211.827072,173.310745 206.591461,172.933441 
	C204.974762,172.816940 203.382355,172.363434 201.436401,171.657272 
	C200.714005,169.875122 200.334030,168.499954 199.954056,167.124771 
	C204.357666,163.607956 208.935272,166.654526 213.703430,167.262894 
	C214.341232,169.443207 214.710709,171.128036 215.080170,172.812866 
	C216.542404,172.391281 218.004623,171.969696 219.466858,171.548111 
	C218.913788,169.875992 218.360703,168.203873 217.807617,166.531754 
	C220.328339,165.620743 222.849060,164.709717 225.369781,163.798706 
	C226.175018,166.304092 226.980225,168.809479 228.010376,172.014740 
	C228.198105,172.014740 229.747543,172.014740 231.666031,172.007675 
	C232.241028,174.471924 232.446945,176.943253 232.496613,179.754990 
z"/>
<path fill="#2C69A2" opacity="1.000000" stroke="none" 
	d="
M211.652115,151.768768 
	C209.434830,156.854538 204.609192,156.565399 200.191742,156.907883 
	C198.304474,157.054199 196.352341,156.363693 194.000977,155.954788 
	C198.858932,151.846619 204.759216,150.377563 211.652115,151.768768 
z"/>
<path fill="#2C69A2" opacity="1.000000" stroke="none" 
	d="
M190.657928,158.014282 
	C191.076309,160.676117 190.498169,162.918732 186.708466,162.997513 
	C187.679184,161.383850 189.015732,159.754074 190.657928,158.014282 
z"/>
<path fill="#3F78A9" opacity="1.000000" stroke="none" 
	d="
M156.271759,180.154541 
	C156.946442,180.033066 157.888519,180.089813 158.941833,180.396027 
	C158.215103,180.541245 157.377136,180.436981 156.271759,180.154541 
z"/>
<path fill="#3F78A9" opacity="1.000000" stroke="none" 
	d="
M149.998993,178.277130 
	C150.613586,178.336456 151.217728,178.660065 151.943893,179.215302 
	C151.523178,179.433517 150.980423,179.420105 150.214310,179.238510 
	C149.990143,178.894012 149.989319,178.717697 149.998993,178.277130 
z"/>
<path fill="#2B66A1" opacity="1.000000" stroke="none" 
	d="
M122.324532,193.409943 
	C123.636337,191.817352 124.833664,190.660614 126.401611,189.145828 
	C126.401611,194.051361 126.401611,198.870819 126.401611,203.991806 
	C125.134705,202.914001 124.099014,202.032898 122.756477,201.089783 
	C122.369774,198.633759 122.289917,196.239777 122.324532,193.409943 
z"/>
<path fill="#5689B4" opacity="1.000000" stroke="none" 
	d="
M89.568802,177.914825 
	C89.180222,177.434326 89.141991,176.989868 89.090714,176.210419 
	C90.500824,176.008255 91.923988,176.141052 93.745361,176.434692 
	C92.735435,177.047318 91.327293,177.499084 89.568802,177.914825 
z"/>
<path fill="#F7F9FA" opacity="1.000000" stroke="none" 
	d="
M211.359467,83.928604 
	C211.529968,83.434486 211.973114,82.833733 212.714478,82.136467 
	C212.552505,82.633957 212.092316,83.227966 211.359467,83.928604 
z"/>
<path fill="#F7F9FA" opacity="1.000000" stroke="none" 
	d="
M220.366180,72.953636 
	C220.428131,72.738121 220.868683,72.488503 221.404678,72.536194 
	C221.248322,72.862167 220.996536,72.890854 220.366180,72.953636 
z"/>
<path fill="#306CA4" opacity="1.000000" stroke="none" 
	d="
M107.305252,70.384163 
	C106.317848,68.156372 105.692131,66.104393 105.026024,63.701401 
	C110.280022,63.553905 115.574402,63.757416 121.312798,63.917244 
	C121.852951,66.265396 121.949097,68.657227 122.049164,71.439934 
	C121.623131,71.731300 121.193184,71.631783 120.122528,71.472763 
	C118.320229,71.430344 117.158623,71.447426 115.997017,71.464508 
	C113.220322,71.162994 110.443634,70.861481 107.305252,70.384163 
z"/>
<path fill="#FAFCFD" opacity="1.000000" stroke="none" 
	d="
M98.757568,117.171555 
	C90.865761,117.538536 82.732025,117.633621 74.188835,117.623978 
	C75.966255,117.013031 78.157227,116.064926 80.339226,116.085129 
	C86.400032,116.141205 92.457100,116.599976 98.757568,117.171555 
z"/>
<path fill="#F7F9FA" opacity="1.000000" stroke="none" 
	d="
M198.482758,55.020767 
	C200.050720,52.404026 202.380386,51.581196 205.663544,53.564880 
	C203.622131,54.116890 201.228882,54.551952 198.482758,55.020767 
z"/>
<path fill="#FAFCFD" opacity="1.000000" stroke="none" 
	d="
M168.139587,67.300995 
	C169.934555,65.588753 171.334137,65.771767 171.917130,68.660202 
	C170.690598,68.535400 169.484818,68.070824 168.139587,67.300995 
z"/>
<path fill="#F7F9FA" opacity="1.000000" stroke="none" 
	d="
M193.376129,57.984692 
	C194.480713,57.099255 195.935349,56.189899 197.731262,55.229385 
	C196.623749,56.105743 195.174973,57.033260 193.376129,57.984692 
z"/>
<path fill="#FAFCFD" opacity="1.000000" stroke="none" 
	d="
M116.170021,71.715729 
	C117.158623,71.447426 118.320229,71.430344 119.801163,71.558426 
	C118.861343,71.791374 117.602180,71.879158 116.170021,71.715729 
z"/>
<path fill="#306CA4" opacity="1.000000" stroke="none" 
	d="
M151.297531,69.638000 
	C151.859619,69.285408 152.732315,69.000664 153.816406,68.889114 
	C153.221237,69.276825 152.414703,69.491348 151.297531,69.638000 
z"/>
<path fill="#F7F9FA" opacity="1.000000" stroke="none" 
	d="
M211.154099,67.039833 
	C211.792770,66.559288 212.668930,66.337341 213.545090,66.115395 
	C213.353531,66.684860 213.161957,67.254326 212.723129,68.006195 
	C212.114441,67.891876 211.753006,67.595154 211.154099,67.039833 
z"/>
<path fill="#F7F9FA" opacity="1.000000" stroke="none" 
	d="
M203.094116,68.835861 
	C203.435181,68.579941 203.884338,68.493843 204.673462,68.467087 
	C204.409683,68.686188 203.805939,68.845940 203.094116,68.835861 
z"/>
<path fill="#306CA4" opacity="1.000000" stroke="none" 
	d="
M144.234650,70.324570 
	C144.559555,70.078690 145.137070,69.921860 145.868256,69.908257 
	C145.510345,70.172195 144.998810,70.292908 144.234650,70.324570 
z"/>
<path fill="#FAFCFD" opacity="1.000000" stroke="none" 
	d="
M129.936157,72.934433 
	C130.202927,72.421967 130.760971,71.852783 131.661530,71.368622 
	C131.411850,71.928345 130.819641,72.403038 129.936157,72.934433 
z"/>
<path fill="#316CA3" opacity="1.000000" stroke="none" 
	d="
M128.752090,103.515656 
	C128.427628,103.815483 127.848206,103.998276 127.109604,104.033539 
	C127.465996,103.723541 127.981567,103.561073 128.752090,103.515656 
z"/>
<path fill="#316CA3" opacity="1.000000" stroke="none" 
	d="
M229.178650,56.582199 
	C228.574448,56.416889 227.920135,55.923504 227.168961,55.122013 
	C227.757584,55.293983 228.443069,55.774055 229.178650,56.582199 
z"/>
<path fill="#306CA4" opacity="1.000000" stroke="none" 
	d="
M122.189583,97.273117 
	C122.425949,97.154419 122.606148,97.315147 122.868683,97.649658 
	C122.701691,97.707123 122.429153,97.616821 122.189583,97.273117 
z"/>
<path fill="#FAFCFD" opacity="1.000000" stroke="none" 
	d="
M72.365128,125.849960 
	C72.053017,125.605881 72.138763,125.315308 72.731789,125.131966 
	C72.837692,125.365288 72.678993,125.553375 72.365128,125.849960 
z"/>
<path fill="#2A679F" opacity="1.000000" stroke="none" 
	d="
M125.344536,40.432976 
	C125.584267,39.818680 125.903526,39.425591 126.222786,39.032501 
	C126.387955,39.428230 126.553116,39.823959 126.718285,40.219688 
	C126.286873,40.364517 125.855469,40.509350 125.344536,40.432976 
z"/>
<path fill="#306CA4" opacity="1.000000" stroke="none" 
	d="
M168.797791,58.891685 
	C168.451920,58.573711 168.283875,58.131523 168.084702,57.335773 
	C168.360916,57.577297 168.668243,58.172382 168.797791,58.891685 
z"/>
<path fill="#EAF0F6" opacity="1.000000" stroke="none" 
	d="
M215.029770,181.599396 
	C216.824020,181.406509 218.538269,181.552292 220.597534,181.857834 
	C218.663025,188.318924 213.892548,191.795990 207.527481,191.795456 
	C200.772369,191.794891 195.916382,188.406311 193.486298,181.817322 
	C195.822830,179.847687 197.552155,179.663971 199.964096,182.376495 
	C204.450653,187.422134 210.266129,187.032379 215.029770,181.599396 
z"/>
<path fill="#EAF0F6" opacity="1.000000" stroke="none" 
	d="
M217.502319,166.547455 
	C218.360703,168.203873 218.913788,169.875992 219.466858,171.548111 
	C218.004623,171.969696 216.542404,172.391281 215.080170,172.812866 
	C214.710709,171.128036 214.341232,169.443207 214.092148,167.418991 
	C215.207367,166.907455 216.202179,166.735306 217.502319,166.547455 
z"/>
<path fill="#EAF0F6" opacity="1.000000" stroke="none" 
	d="
M199.526901,167.059402 
	C200.334030,168.499954 200.714005,169.875122 201.032990,171.621185 
	C199.140518,172.209167 197.309052,172.426254 195.477570,172.643341 
	C195.319275,171.235031 194.563232,169.426056 195.165497,168.527557 
	C195.808487,167.568314 197.734070,167.468826 199.526901,167.059402 
z"/>
</svg>